<svg width="1225" height="187" viewBox="0 0 1225 187" fill="none" xmlns="http://www.w3.org/2000/svg">
<path d="M760.33 183H759.123L754.799 176.303C754.689 176.135 754.599 175.959 754.529 175.775H754.494C754.525 175.955 754.541 176.34 754.541 176.93V183H753.556V174.598H754.834L759.041 181.189C759.217 181.463 759.33 181.65 759.381 181.752H759.404C759.365 181.51 759.346 181.098 759.346 180.516V174.598H760.33V183ZM764.912 183.141C764.025 183.141 763.316 182.861 762.785 182.303C762.258 181.74 761.994 180.996 761.994 180.07C761.994 179.062 762.269 178.275 762.82 177.709C763.371 177.143 764.115 176.859 765.053 176.859C765.947 176.859 766.644 177.135 767.144 177.686C767.648 178.236 767.9 179 767.9 179.977C767.9 180.934 767.629 181.701 767.086 182.279C766.547 182.854 765.822 183.141 764.912 183.141ZM764.982 177.668C764.365 177.668 763.877 177.879 763.517 178.301C763.158 178.719 762.978 179.297 762.978 180.035C762.978 180.746 763.16 181.307 763.523 181.717C763.887 182.127 764.373 182.332 764.982 182.332C765.603 182.332 766.08 182.131 766.412 181.729C766.748 181.326 766.916 180.754 766.916 180.012C766.916 179.262 766.748 178.684 766.412 178.277C766.08 177.871 765.603 177.668 764.982 177.668ZM776.994 177L775.195 183H774.199L772.963 178.705C772.916 178.541 772.885 178.355 772.869 178.148H772.846C772.834 178.289 772.793 178.471 772.722 178.693L771.381 183H770.42L768.603 177H769.611L770.853 181.512C770.892 181.648 770.92 181.828 770.935 182.051H770.982C770.994 181.879 771.029 181.695 771.088 181.5L772.471 177H773.349L774.592 181.523C774.631 181.668 774.66 181.848 774.68 182.062H774.726C774.734 181.91 774.767 181.73 774.826 181.523L776.045 177H776.994ZM778.986 181.664L778.049 184.547H777.363L778.049 181.664H778.986ZM788.01 174.598V180.146H789.088V181.025H788.01V183H787.06V181.025H783.111V180.193C783.478 179.779 783.849 179.338 784.224 178.869C784.599 178.396 784.957 177.918 785.297 177.434C785.64 176.949 785.957 176.467 786.246 175.986C786.539 175.502 786.785 175.039 786.984 174.598H788.01ZM784.195 180.146H787.06V176.033C786.767 176.545 786.49 177.002 786.228 177.404C785.967 177.807 785.717 178.172 785.478 178.5C785.244 178.828 785.019 179.125 784.805 179.391C784.59 179.656 784.387 179.908 784.195 180.146ZM790.805 178.172C790.625 178.172 790.471 178.107 790.342 177.979C790.217 177.85 790.154 177.695 790.154 177.516C790.154 177.336 790.217 177.184 790.342 177.059C790.471 176.934 790.625 176.871 790.805 176.871C790.988 176.871 791.144 176.934 791.273 177.059C791.402 177.184 791.467 177.336 791.467 177.516C791.467 177.695 791.402 177.85 791.273 177.979C791.144 178.107 790.988 178.172 790.805 178.172ZM790.805 183.129C790.625 183.129 790.471 183.064 790.342 182.936C790.217 182.807 790.154 182.652 790.154 182.473C790.154 182.293 790.217 182.139 790.342 182.01C790.471 181.877 790.625 181.811 790.805 181.811C790.988 181.811 791.144 181.877 791.273 182.01C791.402 182.139 791.467 182.293 791.467 182.473C791.467 182.652 791.402 182.807 791.273 182.936C791.144 183.064 790.988 183.129 790.805 183.129ZM796.342 183H795.381V175.74C795.306 175.814 795.197 175.9 795.053 175.998C794.912 176.092 794.752 176.186 794.572 176.279C794.396 176.373 794.209 176.461 794.01 176.543C793.814 176.625 793.623 176.689 793.435 176.736V175.764C793.646 175.705 793.869 175.627 794.103 175.529C794.342 175.428 794.574 175.316 794.801 175.195C795.031 175.07 795.248 174.941 795.451 174.809C795.654 174.672 795.83 174.539 795.978 174.41H796.342V183ZM803.549 174.598V180.146H804.627V181.025H803.549V183H802.599V181.025H798.65V180.193C799.017 179.779 799.389 179.338 799.764 178.869C800.139 178.396 800.496 177.918 800.836 177.434C801.18 176.949 801.496 176.467 801.785 175.986C802.078 175.502 802.324 175.039 802.523 174.598H803.549ZM799.734 180.146H802.599V176.033C802.306 176.545 802.029 177.002 801.767 177.404C801.506 177.807 801.256 178.172 801.017 178.5C800.783 178.828 800.558 179.125 800.344 179.391C800.129 179.656 799.926 179.908 799.734 180.146ZM807.123 179.824V183H806.139V174.598H808.447C809.346 174.598 810.041 174.816 810.533 175.254C811.029 175.691 811.277 176.309 811.277 177.105C811.277 177.902 811.002 178.555 810.451 179.062C809.904 179.57 809.164 179.824 808.23 179.824H807.123ZM807.123 175.488V178.934H808.154C808.834 178.934 809.351 178.779 809.707 178.471C810.066 178.158 810.246 177.719 810.246 177.152C810.246 176.043 809.59 175.488 808.277 175.488H807.123ZM821.431 183H820.453V177.363C820.453 176.918 820.48 176.373 820.535 175.729H820.512C820.418 176.107 820.334 176.379 820.26 176.543L817.389 183H816.908L814.043 176.59C813.961 176.402 813.877 176.115 813.791 175.729H813.767C813.799 176.064 813.814 176.613 813.814 177.375V183H812.865V174.598H814.166L816.744 180.457C816.943 180.906 817.072 181.242 817.131 181.465H817.166C817.334 181.004 817.469 180.66 817.57 180.434L820.201 174.598H821.431V183Z" fill="#625AFA"/>
<path d="M1178.96 184H1178V176.74C1177.93 176.814 1177.82 176.9 1177.68 176.998C1177.54 177.092 1177.38 177.186 1177.2 177.279C1177.02 177.373 1176.83 177.461 1176.63 177.543C1176.44 177.625 1176.25 177.689 1176.06 177.736V176.764C1176.27 176.705 1176.49 176.627 1176.73 176.529C1176.96 176.428 1177.2 176.316 1177.42 176.195C1177.65 176.07 1177.87 175.941 1178.07 175.809C1178.28 175.672 1178.45 175.539 1178.6 175.41H1178.96V184ZM1185.43 184H1184.47V176.74C1184.4 176.814 1184.29 176.9 1184.14 176.998C1184 177.092 1183.84 177.186 1183.66 177.279C1183.49 177.373 1183.3 177.461 1183.1 177.543C1182.91 177.625 1182.71 177.689 1182.53 177.736V176.764C1182.74 176.705 1182.96 176.627 1183.2 176.529C1183.43 176.428 1183.67 176.316 1183.89 176.195C1184.12 176.07 1184.34 175.941 1184.54 175.809C1184.75 175.672 1184.92 175.539 1185.07 175.41H1185.43V184ZM1188.97 179.172C1188.79 179.172 1188.63 179.107 1188.5 178.979C1188.38 178.85 1188.32 178.695 1188.32 178.516C1188.32 178.336 1188.38 178.184 1188.5 178.059C1188.63 177.934 1188.79 177.871 1188.97 177.871C1189.15 177.871 1189.31 177.934 1189.44 178.059C1189.56 178.184 1189.63 178.336 1189.63 178.516C1189.63 178.695 1189.56 178.85 1189.44 178.979C1189.31 179.107 1189.15 179.172 1188.97 179.172ZM1188.97 184.129C1188.79 184.129 1188.63 184.064 1188.5 183.936C1188.38 183.807 1188.32 183.652 1188.32 183.473C1188.32 183.293 1188.38 183.139 1188.5 183.01C1188.63 182.877 1188.79 182.811 1188.97 182.811C1189.15 182.811 1189.31 182.877 1189.44 183.01C1189.56 183.139 1189.63 183.293 1189.63 183.473C1189.63 183.652 1189.56 183.807 1189.44 183.936C1189.31 184.064 1189.15 184.129 1188.97 184.129ZM1195.94 181.434C1195.94 181.844 1195.87 182.215 1195.73 182.547C1195.59 182.879 1195.39 183.164 1195.12 183.402C1194.87 183.641 1194.55 183.824 1194.19 183.953C1193.82 184.082 1193.41 184.146 1192.96 184.146C1192.18 184.146 1191.6 184.029 1191.22 183.795V182.775C1191.79 183.143 1192.38 183.326 1192.97 183.326C1193.28 183.326 1193.55 183.281 1193.79 183.191C1194.04 183.102 1194.25 182.977 1194.42 182.816C1194.59 182.656 1194.72 182.463 1194.81 182.236C1194.91 182.01 1194.96 181.762 1194.96 181.492C1194.96 180.945 1194.77 180.518 1194.4 180.209C1194.04 179.896 1193.5 179.74 1192.8 179.74C1192.69 179.74 1192.57 179.742 1192.45 179.746C1192.32 179.75 1192.2 179.756 1192.07 179.764C1191.95 179.768 1191.82 179.773 1191.7 179.781C1191.59 179.789 1191.48 179.799 1191.38 179.811L1191.67 175.598H1195.55V176.465H1192.5L1192.33 178.932C1192.46 178.924 1192.59 178.918 1192.73 178.914C1192.87 178.906 1192.99 178.902 1193.1 178.902C1193.55 178.902 1193.95 178.961 1194.3 179.078C1194.65 179.195 1194.95 179.363 1195.19 179.582C1195.44 179.797 1195.62 180.062 1195.75 180.379C1195.88 180.691 1195.94 181.043 1195.94 181.434ZM1202.61 179.295C1202.61 180.064 1202.54 180.75 1202.38 181.352C1202.23 181.949 1202.01 182.457 1201.72 182.875C1201.42 183.289 1201.07 183.605 1200.64 183.824C1200.22 184.039 1199.74 184.146 1199.2 184.146C1198.65 184.146 1198.16 184.049 1197.74 183.854V182.934C1198.2 183.195 1198.7 183.326 1199.23 183.326C1199.61 183.326 1199.94 183.248 1200.24 183.092C1200.54 182.936 1200.79 182.709 1201 182.412C1201.21 182.111 1201.37 181.742 1201.48 181.305C1201.59 180.867 1201.64 180.365 1201.64 179.799H1201.62C1201.26 180.521 1200.63 180.883 1199.74 180.883C1199.38 180.883 1199.05 180.82 1198.75 180.695C1198.45 180.566 1198.19 180.387 1197.97 180.156C1197.75 179.922 1197.58 179.645 1197.46 179.324C1197.34 179.004 1197.28 178.65 1197.28 178.264C1197.28 177.85 1197.35 177.471 1197.48 177.127C1197.62 176.783 1197.8 176.488 1198.04 176.242C1198.29 175.992 1198.57 175.799 1198.9 175.662C1199.23 175.525 1199.59 175.457 1199.98 175.457C1200.4 175.457 1200.78 175.543 1201.1 175.715C1201.43 175.883 1201.71 176.131 1201.93 176.459C1202.15 176.783 1202.32 177.184 1202.44 177.66C1202.55 178.137 1202.61 178.682 1202.61 179.295ZM1201.58 178.434C1201.58 178.109 1201.53 177.814 1201.45 177.549C1201.37 177.283 1201.25 177.057 1201.1 176.869C1200.95 176.678 1200.78 176.531 1200.57 176.43C1200.37 176.324 1200.14 176.271 1199.9 176.271C1199.67 176.271 1199.46 176.318 1199.26 176.412C1199.06 176.502 1198.88 176.631 1198.73 176.799C1198.59 176.963 1198.47 177.16 1198.39 177.391C1198.31 177.617 1198.27 177.865 1198.27 178.135C1198.27 178.432 1198.3 178.697 1198.38 178.932C1198.46 179.166 1198.58 179.365 1198.73 179.529C1198.88 179.689 1199.05 179.812 1199.26 179.898C1199.47 179.984 1199.71 180.027 1199.96 180.027C1200.18 180.027 1200.39 179.986 1200.59 179.904C1200.79 179.818 1200.96 179.705 1201.1 179.564C1201.25 179.42 1201.37 179.252 1201.45 179.061C1201.53 178.865 1201.58 178.656 1201.58 178.434ZM1208.58 180.824V184H1207.59V175.598H1209.9C1210.8 175.598 1211.5 175.816 1211.99 176.254C1212.48 176.691 1212.73 177.309 1212.73 178.105C1212.73 178.902 1212.46 179.555 1211.91 180.062C1211.36 180.57 1210.62 180.824 1209.69 180.824H1208.58ZM1208.58 176.488V179.934H1209.61C1210.29 179.934 1210.81 179.779 1211.16 179.471C1211.52 179.158 1211.7 178.719 1211.7 178.152C1211.7 177.043 1211.04 176.488 1209.73 176.488H1208.58ZM1222.89 184H1221.91V178.363C1221.91 177.918 1221.94 177.373 1221.99 176.729H1221.97C1221.87 177.107 1221.79 177.379 1221.71 177.543L1218.84 184H1218.36L1215.5 177.59C1215.42 177.402 1215.33 177.115 1215.25 176.729H1215.22C1215.25 177.064 1215.27 177.613 1215.27 178.375V184H1214.32V175.598H1215.62L1218.2 181.457C1218.4 181.906 1218.53 182.242 1218.59 182.465H1218.62C1218.79 182.004 1218.92 181.66 1219.03 181.434L1221.66 175.598H1222.89V184Z" fill="#687385"/>
<path d="M4.24219 184H3.28125V176.74C3.20703 176.814 3.09766 176.9 2.95312 176.998C2.8125 177.092 2.65234 177.186 2.47266 177.279C2.29688 177.373 2.10938 177.461 1.91016 177.543C1.71484 177.625 1.52344 177.689 1.33594 177.736V176.764C1.54688 176.705 1.76953 176.627 2.00391 176.529C2.24219 176.428 2.47461 176.316 2.70117 176.195C2.93164 176.07 3.14844 175.941 3.35156 175.809C3.55469 175.672 3.73047 175.539 3.87891 175.41H4.24219V184ZM10.9922 177.801C10.9922 177.543 10.9512 177.318 10.8691 177.127C10.791 176.936 10.6816 176.777 10.541 176.652C10.4043 176.523 10.2422 176.428 10.0547 176.365C9.86719 176.303 9.66406 176.271 9.44531 176.271C9.25781 176.271 9.07422 176.297 8.89453 176.348C8.71484 176.398 8.53906 176.469 8.36719 176.559C8.19922 176.648 8.03516 176.756 7.875 176.881C7.71875 177.006 7.57227 177.145 7.43555 177.297V176.266C7.70508 176.004 8.00586 175.805 8.33789 175.668C8.67383 175.527 9.08203 175.457 9.5625 175.457C9.90625 175.457 10.2246 175.508 10.5176 175.609C10.8105 175.707 11.0645 175.852 11.2793 176.043C11.4941 176.234 11.6621 176.471 11.7832 176.752C11.9082 177.033 11.9707 177.355 11.9707 177.719C11.9707 178.051 11.9316 178.352 11.8535 178.621C11.7793 178.891 11.6641 179.145 11.5078 179.383C11.3555 179.621 11.1621 179.85 10.9277 180.068C10.6934 180.287 10.418 180.51 10.1016 180.736C9.70703 181.018 9.38086 181.258 9.12305 181.457C8.86914 181.656 8.66602 181.844 8.51367 182.02C8.36523 182.191 8.25977 182.365 8.19727 182.541C8.13867 182.713 8.10938 182.912 8.10938 183.139H12.293V184H7.10742V183.584C7.10742 183.225 7.14648 182.908 7.22461 182.635C7.30273 182.361 7.43164 182.102 7.61133 181.855C7.79102 181.609 8.02539 181.363 8.31445 181.117C8.60742 180.871 8.96484 180.594 9.38672 180.285C9.69141 180.066 9.94531 179.857 10.1484 179.658C10.3555 179.459 10.5215 179.26 10.6465 179.061C10.7715 178.861 10.8594 178.66 10.9102 178.457C10.9648 178.25 10.9922 178.031 10.9922 177.801ZM14.2441 179.172C14.0645 179.172 13.9102 179.107 13.7812 178.979C13.6562 178.85 13.5938 178.695 13.5938 178.516C13.5938 178.336 13.6562 178.184 13.7812 178.059C13.9102 177.934 14.0645 177.871 14.2441 177.871C14.4277 177.871 14.584 177.934 14.7129 178.059C14.8418 178.184 14.9062 178.336 14.9062 178.516C14.9062 178.695 14.8418 178.85 14.7129 178.979C14.584 179.107 14.4277 179.172 14.2441 179.172ZM14.2441 184.129C14.0645 184.129 13.9102 184.064 13.7812 183.936C13.6562 183.807 13.5938 183.652 13.5938 183.473C13.5938 183.293 13.6562 183.139 13.7812 183.01C13.9102 182.877 14.0645 182.811 14.2441 182.811C14.4277 182.811 14.584 182.877 14.7129 183.01C14.8418 183.139 14.9062 183.293 14.9062 183.473C14.9062 183.652 14.8418 183.807 14.7129 183.936C14.584 184.064 14.4277 184.129 14.2441 184.129ZM21.5156 179.764C21.5156 180.467 21.4512 181.09 21.3223 181.633C21.1973 182.176 21.0137 182.635 20.7715 183.01C20.5332 183.381 20.2383 183.664 19.8867 183.859C19.5391 184.051 19.1426 184.146 18.6973 184.146C18.2754 184.146 17.8984 184.055 17.5664 183.871C17.2383 183.684 16.9609 183.412 16.7344 183.057C16.5078 182.701 16.3359 182.266 16.2188 181.75C16.1016 181.23 16.043 180.637 16.043 179.969C16.043 179.234 16.1035 178.586 16.2246 178.023C16.3496 177.461 16.5312 176.99 16.7695 176.611C17.0078 176.229 17.3027 175.941 17.6543 175.75C18.0098 175.555 18.416 175.457 18.873 175.457C20.6348 175.457 21.5156 176.893 21.5156 179.764ZM20.5312 179.857C20.5312 177.467 19.9629 176.271 18.8262 176.271C17.627 176.271 17.0273 177.488 17.0273 179.922C17.0273 182.191 17.6152 183.326 18.791 183.326C19.9512 183.326 20.5312 182.17 20.5312 179.857ZM27.9844 179.764C27.9844 180.467 27.9199 181.09 27.791 181.633C27.666 182.176 27.4824 182.635 27.2402 183.01C27.002 183.381 26.707 183.664 26.3555 183.859C26.0078 184.051 25.6113 184.146 25.166 184.146C24.7441 184.146 24.3672 184.055 24.0352 183.871C23.707 183.684 23.4297 183.412 23.2031 183.057C22.9766 182.701 22.8047 182.266 22.6875 181.75C22.5703 181.23 22.5117 180.637 22.5117 179.969C22.5117 179.234 22.5723 178.586 22.6934 178.023C22.8184 177.461 23 176.99 23.2383 176.611C23.4766 176.229 23.7715 175.941 24.123 175.75C24.4785 175.555 24.8848 175.457 25.3418 175.457C27.1035 175.457 27.9844 176.893 27.9844 179.764ZM27 179.857C27 177.467 26.4316 176.271 25.2949 176.271C24.0957 176.271 23.4961 177.488 23.4961 179.922C23.4961 182.191 24.084 183.326 25.2598 183.326C26.4199 183.326 27 182.17 27 179.857ZM39.375 184H38.2852L37.3945 181.645H33.832L32.9941 184H31.8984L35.1211 175.598H36.1406L39.375 184ZM37.0723 180.76L35.7539 177.18C35.7109 177.062 35.668 176.875 35.625 176.617H35.6016C35.5625 176.855 35.5176 177.043 35.4668 177.18L34.1602 180.76H37.0723ZM49.1836 184H48.2051V178.363C48.2051 177.918 48.2324 177.373 48.2871 176.729H48.2637C48.1699 177.107 48.0859 177.379 48.0117 177.543L45.1406 184H44.6602L41.7949 177.59C41.7129 177.402 41.6289 177.115 41.543 176.729H41.5195C41.5508 177.064 41.5664 177.613 41.5664 178.375V184H40.6172V175.598H41.918L44.4961 181.457C44.6953 181.906 44.8242 182.242 44.8828 182.465H44.918C45.0859 182.004 45.2207 181.66 45.3223 181.434L47.9531 175.598H49.1836V184Z" fill="#687385"/>
<path d="M4.8125 40.9375V42.6328H4V41C2.89062 41 1.98958 40.776 1.29688 40.3281V38.9688C1.59896 39.2344 2.01042 39.4583 2.53125 39.6406C3.05729 39.8177 3.54688 39.9062 4 39.9062V35.9062C2.85417 35.3542 2.11198 34.8464 1.77344 34.3828C1.4349 33.9141 1.26562 33.362 1.26562 32.7266C1.26562 31.9714 1.52344 31.3203 2.03906 30.7734C2.55469 30.2214 3.20833 29.8906 4 29.7812V28.375H4.8125V29.75C5.83333 29.7812 6.53906 29.9271 6.92969 30.1875V31.5156C6.39844 31.099 5.69271 30.875 4.8125 30.8438V34.9688C5.89583 35.4844 6.63542 35.9844 7.03125 36.4688C7.43229 36.9479 7.63281 37.4948 7.63281 38.1094C7.63281 38.849 7.38281 39.4714 6.88281 39.9766C6.38802 40.4766 5.69792 40.7969 4.8125 40.9375ZM4 34.5312V30.8906C3.5625 30.9792 3.21615 31.1745 2.96094 31.4766C2.70573 31.7734 2.57812 32.1354 2.57812 32.5625C2.57812 33.0104 2.68229 33.3776 2.89062 33.6641C3.09896 33.9505 3.46875 34.2396 4 34.5312ZM4.8125 36.3125V39.8438C5.81771 39.625 6.32031 39.0833 6.32031 38.2188C6.32031 37.5 5.81771 36.8646 4.8125 36.3125ZM14.4412 41H13.16V31.3203C13.061 31.4193 12.9152 31.5339 12.7225 31.6641C12.535 31.7891 12.3215 31.9141 12.0819 32.0391C11.8475 32.1641 11.5975 32.2812 11.3319 32.3906C11.0715 32.5 10.8162 32.5859 10.5662 32.6484V31.3516C10.8475 31.2734 11.1444 31.1693 11.4569 31.0391C11.7746 30.9036 12.0845 30.7552 12.3866 30.5938C12.6939 30.4271 12.9829 30.2552 13.2537 30.0781C13.5246 29.8958 13.759 29.7188 13.9569 29.5469H14.4412V41ZM23.6012 32.7344C23.6012 32.3906 23.5466 32.0911 23.4372 31.8359C23.333 31.5807 23.1872 31.3698 22.9997 31.2031C22.8174 31.0312 22.6012 30.9036 22.3512 30.8203C22.1012 30.737 21.8304 30.6953 21.5387 30.6953C21.2887 30.6953 21.044 30.7292 20.8044 30.7969C20.5648 30.8646 20.3304 30.9583 20.1012 31.0781C19.8773 31.1979 19.6585 31.3411 19.445 31.5078C19.2367 31.6745 19.0414 31.8594 18.8591 32.0625V30.6875C19.2184 30.3385 19.6195 30.0729 20.0622 29.8906C20.5101 29.7031 21.0544 29.6094 21.695 29.6094C22.1533 29.6094 22.5778 29.6771 22.9684 29.8125C23.3591 29.9427 23.6976 30.1354 23.9841 30.3906C24.2705 30.6458 24.4945 30.9609 24.6559 31.3359C24.8226 31.7109 24.9059 32.1406 24.9059 32.625C24.9059 33.0677 24.8539 33.4688 24.7497 33.8281C24.6507 34.1875 24.4971 34.526 24.2887 34.8438C24.0856 35.1615 23.8278 35.4661 23.5153 35.7578C23.2028 36.0495 22.8356 36.3464 22.4137 36.6484C21.8877 37.0234 21.4528 37.3438 21.1091 37.6094C20.7705 37.875 20.4997 38.125 20.2966 38.3594C20.0986 38.5885 19.958 38.8203 19.8747 39.0547C19.7966 39.2839 19.7575 39.5495 19.7575 39.8516H25.3356V41H18.4216V40.4453C18.4216 39.9661 18.4736 39.5443 18.5778 39.1797C18.682 38.8151 18.8539 38.4688 19.0934 38.1406C19.333 37.8125 19.6455 37.4844 20.0309 37.1562C20.4216 36.8281 20.8981 36.4583 21.4606 36.0469C21.8669 35.7552 22.2054 35.4766 22.4762 35.2109C22.7523 34.9453 22.9736 34.6797 23.1403 34.4141C23.307 34.1484 23.4242 33.8802 23.4919 33.6094C23.5648 33.3333 23.6012 33.0417 23.6012 32.7344ZM28.8237 39.2188L27.5737 43.0625H26.6597L27.5737 39.2188H28.8237ZM35.64 41H34.3587V31.3203C34.2598 31.4193 34.114 31.5339 33.9212 31.6641C33.7337 31.7891 33.5202 31.9141 33.2806 32.0391C33.0462 32.1641 32.7962 32.2812 32.5306 32.3906C32.2702 32.5 32.015 32.5859 31.765 32.6484V31.3516C32.0462 31.2734 32.3431 31.1693 32.6556 31.0391C32.9733 30.9036 33.2832 30.7552 33.5853 30.5938C33.8926 30.4271 34.1817 30.2552 34.4525 30.0781C34.7233 29.8958 34.9577 29.7188 35.1556 29.5469H35.64V41ZM46.6125 34.7266C46.6125 35.7526 46.5109 36.6667 46.3078 37.4688C46.1047 38.2656 45.8078 38.9427 45.4172 39.5C45.0266 40.0521 44.55 40.474 43.9875 40.7656C43.425 41.0521 42.7844 41.1953 42.0656 41.1953C41.326 41.1953 40.675 41.0651 40.1125 40.8047V39.5781C40.7323 39.9271 41.3937 40.1016 42.0969 40.1016C42.6021 40.1016 43.0526 39.9974 43.4484 39.7891C43.8495 39.5807 44.188 39.2786 44.4641 38.8828C44.7401 38.4818 44.951 37.9896 45.0969 37.4062C45.2427 36.8229 45.3156 36.1536 45.3156 35.3984H45.2844C44.8052 36.362 43.9719 36.8438 42.7844 36.8438C42.3052 36.8438 41.8651 36.7604 41.4641 36.5938C41.063 36.4219 40.7167 36.1823 40.425 35.875C40.1333 35.5625 39.9068 35.1927 39.7453 34.7656C39.5839 34.3385 39.5031 33.8672 39.5031 33.3516C39.5031 32.7995 39.5917 32.2943 39.7687 31.8359C39.951 31.3776 40.201 30.9844 40.5187 30.6562C40.8417 30.3229 41.2219 30.0651 41.6594 29.8828C42.1021 29.7005 42.5839 29.6094 43.1047 29.6094C43.6672 29.6094 44.1646 29.724 44.5969 29.9531C45.0344 30.1771 45.4016 30.5078 45.6984 30.9453C45.9953 31.3776 46.2219 31.9115 46.3781 32.5469C46.5344 33.1823 46.6125 33.9089 46.6125 34.7266ZM45.2297 33.5781C45.2297 33.1458 45.1724 32.7526 45.0578 32.3984C44.9484 32.0443 44.7948 31.7422 44.5969 31.4922C44.399 31.237 44.162 31.0417 43.8859 30.9062C43.6151 30.7656 43.3182 30.6953 42.9953 30.6953C42.688 30.6953 42.4016 30.7578 42.1359 30.8828C41.8703 31.0026 41.6385 31.1745 41.4406 31.3984C41.2479 31.6172 41.0943 31.8802 40.9797 32.1875C40.8703 32.4896 40.8156 32.8203 40.8156 33.1797C40.8156 33.5755 40.8677 33.9297 40.9719 34.2422C41.0812 34.5547 41.2349 34.8203 41.4328 35.0391C41.6307 35.2526 41.8677 35.4167 42.1437 35.5312C42.425 35.6458 42.7349 35.7031 43.0734 35.7031C43.3703 35.7031 43.649 35.6484 43.9094 35.5391C44.175 35.4245 44.4042 35.2734 44.5969 35.0859C44.7948 34.8932 44.9484 34.6693 45.0578 34.4141C45.1724 34.1536 45.2297 33.875 45.2297 33.5781ZM48.2569 37.875C48.2569 37.5781 48.3037 37.2812 48.3975 36.9844C48.4912 36.6823 48.6241 36.401 48.7959 36.1406C48.973 35.8802 49.1892 35.6432 49.4444 35.4297C49.7048 35.2161 49.9991 35.0469 50.3272 34.9219C49.8428 34.651 49.4574 34.3047 49.1709 33.8828C48.8845 33.4557 48.7412 32.9844 48.7412 32.4688C48.7412 32.0573 48.8194 31.6771 48.9756 31.3281C49.1371 30.9792 49.3584 30.6771 49.6397 30.4219C49.9209 30.1667 50.2543 29.9688 50.6397 29.8281C51.0251 29.6823 51.4418 29.6094 51.8897 29.6094C52.3428 29.6094 52.7621 29.6823 53.1475 29.8281C53.5329 29.974 53.8662 30.1745 54.1475 30.4297C54.4287 30.6849 54.6475 30.987 54.8037 31.3359C54.96 31.6849 55.0381 32.0625 55.0381 32.4688C55.0381 32.9844 54.8949 33.4557 54.6084 33.8828C54.322 34.3047 53.9418 34.651 53.4678 34.9219C53.7907 35.0469 54.0798 35.2161 54.335 35.4297C54.5902 35.6432 54.8037 35.8802 54.9756 36.1406C55.1527 36.401 55.2881 36.6823 55.3819 36.9844C55.4756 37.2812 55.5225 37.5781 55.5225 37.875C55.5225 38.3646 55.434 38.8125 55.2569 39.2188C55.0798 39.625 54.8298 39.974 54.5069 40.2656C54.1892 40.5521 53.8064 40.776 53.3584 40.9375C52.9157 41.099 52.4261 41.1797 51.8897 41.1797C51.3584 41.1797 50.8715 41.099 50.4287 40.9375C49.986 40.776 49.6032 40.5521 49.2803 40.2656C48.9574 39.974 48.7048 39.625 48.5225 39.2188C48.3454 38.8125 48.2569 38.3646 48.2569 37.875ZM49.6475 37.7656C49.6475 38.1146 49.6996 38.4297 49.8037 38.7109C49.9131 38.9922 50.0642 39.2318 50.2569 39.4297C50.4548 39.6276 50.6918 39.7812 50.9678 39.8906C51.2491 39.9948 51.559 40.0469 51.8975 40.0469C52.2256 40.0469 52.5277 39.9922 52.8037 39.8828C53.0798 39.7734 53.3168 39.6198 53.5147 39.4219C53.7178 39.224 53.8741 38.9844 53.9834 38.7031C54.098 38.4219 54.1553 38.1094 54.1553 37.7656C54.1553 37.4531 54.1006 37.1615 53.9912 36.8906C53.8871 36.6146 53.736 36.3724 53.5381 36.1641C53.3402 35.9557 53.1032 35.7917 52.8272 35.6719C52.5511 35.5521 52.2412 35.4922 51.8975 35.4922C51.5746 35.4922 51.2751 35.5495 50.9991 35.6641C50.7282 35.7734 50.4912 35.9297 50.2881 36.1328C50.0902 36.3307 49.934 36.5703 49.8194 36.8516C49.7048 37.1276 49.6475 37.4323 49.6475 37.7656ZM50.0459 32.5703C50.0459 32.8359 50.0928 33.0833 50.1866 33.3125C50.2855 33.5365 50.4183 33.7344 50.585 33.9062C50.7569 34.0729 50.9548 34.2057 51.1787 34.3047C51.4027 34.3984 51.6423 34.4453 51.8975 34.4453C52.1527 34.4453 52.3923 34.3958 52.6162 34.2969C52.8454 34.1979 53.0433 34.0651 53.21 33.8984C53.3767 33.7266 53.5095 33.5286 53.6084 33.3047C53.7074 33.0755 53.7569 32.8307 53.7569 32.5703C53.7569 32.2995 53.7074 32.0495 53.6084 31.8203C53.5147 31.5911 53.3845 31.3932 53.2178 31.2266C53.0511 31.0599 52.8532 30.9297 52.6241 30.8359C52.4001 30.737 52.1579 30.6875 51.8975 30.6875C51.6215 30.6875 51.3689 30.737 51.1397 30.8359C50.9157 30.9349 50.7204 31.0703 50.5537 31.2422C50.3923 31.4089 50.2673 31.6068 50.1787 31.8359C50.0902 32.0651 50.0459 32.3099 50.0459 32.5703ZM58.0809 41.1719C57.8414 41.1719 57.6356 41.0859 57.4637 40.9141C57.2971 40.7422 57.2137 40.5365 57.2137 40.2969C57.2137 40.0573 57.2971 39.8516 57.4637 39.6797C57.6356 39.5026 57.8414 39.4141 58.0809 39.4141C58.3257 39.4141 58.5341 39.5026 58.7059 39.6797C58.8778 39.8516 58.9637 40.0573 58.9637 40.2969C58.9637 40.5365 58.8778 40.7422 58.7059 40.9141C58.5341 41.0859 58.3257 41.1719 58.0809 41.1719ZM67.8581 30.5391C67.6862 30.8359 67.4779 31.2057 67.2331 31.6484C66.9935 32.0911 66.7383 32.5885 66.4675 33.1406C66.1967 33.6927 65.9206 34.2865 65.6394 34.9219C65.3581 35.5573 65.0951 36.2135 64.8503 36.8906C64.6055 37.5677 64.3894 38.2552 64.2019 38.9531C64.0196 39.6458 63.8868 40.3281 63.8034 41H62.4284C62.5222 40.3333 62.6654 39.6536 62.8581 38.9609C63.056 38.263 63.2774 37.5807 63.5222 36.9141C63.7722 36.2422 64.0352 35.5964 64.3112 34.9766C64.5873 34.3568 64.8555 33.7865 65.1159 33.2656C65.3764 32.7448 65.6133 32.2865 65.8269 31.8906C66.0456 31.4896 66.2201 31.1771 66.3503 30.9531H60.7331V29.7969H67.8581V30.5391ZM74.7838 32.7344C74.7838 32.3906 74.7291 32.0911 74.6197 31.8359C74.5155 31.5807 74.3697 31.3698 74.1822 31.2031C73.9999 31.0312 73.7838 30.9036 73.5338 30.8203C73.2838 30.737 73.0129 30.6953 72.7213 30.6953C72.4713 30.6953 72.2265 30.7292 71.9869 30.7969C71.7473 30.8646 71.5129 30.9583 71.2838 31.0781C71.0598 31.1979 70.841 31.3411 70.6275 31.5078C70.4192 31.6745 70.2239 31.8594 70.0416 32.0625V30.6875C70.4009 30.3385 70.802 30.0729 71.2447 29.8906C71.6926 29.7031 72.2369 29.6094 72.8775 29.6094C73.3358 29.6094 73.7603 29.6771 74.1509 29.8125C74.5416 29.9427 74.8801 30.1354 75.1666 30.3906C75.453 30.6458 75.677 30.9609 75.8384 31.3359C76.0051 31.7109 76.0884 32.1406 76.0884 32.625C76.0884 33.0677 76.0364 33.4688 75.9322 33.8281C75.8332 34.1875 75.6796 34.526 75.4713 34.8438C75.2681 35.1615 75.0103 35.4661 74.6978 35.7578C74.3853 36.0495 74.0181 36.3464 73.5963 36.6484C73.0702 37.0234 72.6353 37.3438 72.2916 37.6094C71.953 37.875 71.6822 38.125 71.4791 38.3594C71.2811 38.5885 71.1405 38.8203 71.0572 39.0547C70.9791 39.2839 70.94 39.5495 70.94 39.8516H76.5181V41H69.6041V40.4453C69.6041 39.9661 69.6561 39.5443 69.7603 39.1797C69.8645 38.8151 70.0364 38.4688 70.2759 38.1406C70.5155 37.8125 70.828 37.4844 71.2134 37.1562C71.6041 36.8281 72.0806 36.4583 72.6431 36.0469C73.0494 35.7552 73.3879 35.4766 73.6588 35.2109C73.9348 34.9453 74.1561 34.6797 74.3228 34.4141C74.4895 34.1484 74.6067 33.8802 74.6744 33.6094C74.7473 33.3333 74.7838 33.0417 74.7838 32.7344Z" fill="#625AFA"/>
<path d="M171.812 40.9375V42.6328H171V41C169.891 41 168.99 40.776 168.297 40.3281V38.9688C168.599 39.2344 169.01 39.4583 169.531 39.6406C170.057 39.8177 170.547 39.9062 171 39.9062V35.9062C169.854 35.3542 169.112 34.8464 168.773 34.3828C168.435 33.9141 168.266 33.362 168.266 32.7266C168.266 31.9714 168.523 31.3203 169.039 30.7734C169.555 30.2214 170.208 29.8906 171 29.7812V28.375H171.812V29.75C172.833 29.7812 173.539 29.9271 173.93 30.1875V31.5156C173.398 31.099 172.693 30.875 171.812 30.8438V34.9688C172.896 35.4844 173.635 35.9844 174.031 36.4688C174.432 36.9479 174.633 37.4948 174.633 38.1094C174.633 38.849 174.383 39.4714 173.883 39.9766C173.388 40.4766 172.698 40.7969 171.812 40.9375ZM171 34.5312V30.8906C170.562 30.9792 170.216 31.1745 169.961 31.4766C169.706 31.7734 169.578 32.1354 169.578 32.5625C169.578 33.0104 169.682 33.3776 169.891 33.6641C170.099 33.9505 170.469 34.2396 171 34.5312ZM171.812 36.3125V39.8438C172.818 39.625 173.32 39.0833 173.32 38.2188C173.32 37.5 172.818 36.8646 171.812 36.3125ZM181.441 41H180.16V31.3203C180.061 31.4193 179.915 31.5339 179.722 31.6641C179.535 31.7891 179.321 31.9141 179.082 32.0391C178.847 32.1641 178.597 32.2812 178.332 32.3906C178.071 32.5 177.816 32.5859 177.566 32.6484V31.3516C177.847 31.2734 178.144 31.1693 178.457 31.0391C178.775 30.9036 179.084 30.7552 179.387 30.5938C179.694 30.4271 179.983 30.2552 180.254 30.0781C180.525 29.8958 180.759 29.7188 180.957 29.5469H181.441V41ZM190.226 41H188.945V31.3203C188.846 31.4193 188.7 31.5339 188.507 31.6641C188.32 31.7891 188.106 31.9141 187.867 32.0391C187.632 32.1641 187.382 32.2812 187.117 32.3906C186.856 32.5 186.601 32.5859 186.351 32.6484V31.3516C186.632 31.2734 186.929 31.1693 187.242 31.0391C187.56 30.9036 187.869 30.7552 188.172 30.5938C188.479 30.4271 188.768 30.2552 189.039 30.0781C189.31 29.8958 189.544 29.7188 189.742 29.5469H190.226V41ZM195.824 39.2188L194.574 43.0625H193.66L194.574 39.2188H195.824ZM204.554 37.5781C204.554 38.125 204.46 38.6198 204.273 39.0625C204.085 39.5052 203.817 39.8854 203.468 40.2031C203.124 40.5208 202.708 40.7656 202.218 40.9375C201.729 41.1094 201.184 41.1953 200.585 41.1953C199.544 41.1953 198.77 41.0391 198.265 40.7266V39.3672C199.025 39.8568 199.804 40.1016 200.601 40.1016C201.007 40.1016 201.372 40.0417 201.695 39.9219C202.023 39.8021 202.301 39.6354 202.531 39.4219C202.76 39.2083 202.934 38.9505 203.054 38.6484C203.179 38.3464 203.242 38.0156 203.242 37.6562C203.242 36.9271 202.997 36.3568 202.507 35.9453C202.018 35.5286 201.307 35.3203 200.374 35.3203C200.223 35.3203 200.064 35.3229 199.898 35.3281C199.731 35.3333 199.564 35.3411 199.398 35.3516C199.231 35.3568 199.067 35.3646 198.906 35.375C198.749 35.3854 198.606 35.3984 198.476 35.4141L198.859 29.7969H204.038V30.9531H199.968L199.742 34.2422C199.908 34.2318 200.085 34.224 200.273 34.2188C200.46 34.2083 200.627 34.2031 200.773 34.2031C201.367 34.2031 201.898 34.2812 202.367 34.4375C202.835 34.5938 203.231 34.8177 203.554 35.1094C203.882 35.3958 204.13 35.75 204.296 36.1719C204.468 36.5885 204.554 37.0573 204.554 37.5781ZM213.339 37.5781C213.339 38.125 213.245 38.6198 213.058 39.0625C212.87 39.5052 212.602 39.8854 212.253 40.2031C211.909 40.5208 211.493 40.7656 211.003 40.9375C210.514 41.1094 209.969 41.1953 209.37 41.1953C208.329 41.1953 207.555 41.0391 207.05 40.7266V39.3672C207.81 39.8568 208.589 40.1016 209.386 40.1016C209.792 40.1016 210.157 40.0417 210.48 39.9219C210.808 39.8021 211.086 39.6354 211.316 39.4219C211.545 39.2083 211.719 38.9505 211.839 38.6484C211.964 38.3464 212.027 38.0156 212.027 37.6562C212.027 36.9271 211.782 36.3568 211.292 35.9453C210.803 35.5286 210.092 35.3203 209.159 35.3203C209.008 35.3203 208.849 35.3229 208.683 35.3281C208.516 35.3333 208.349 35.3411 208.183 35.3516C208.016 35.3568 207.852 35.3646 207.691 35.375C207.534 35.3854 207.391 35.3984 207.261 35.4141L207.644 29.7969H212.823V30.9531H208.753L208.527 34.2422C208.693 34.2318 208.87 34.224 209.058 34.2188C209.245 34.2083 209.412 34.2031 209.558 34.2031C210.152 34.2031 210.683 34.2812 211.152 34.4375C211.62 34.5938 212.016 34.8177 212.339 35.1094C212.667 35.3958 212.915 35.75 213.081 36.1719C213.253 36.5885 213.339 37.0573 213.339 37.5781ZM222.538 37.4453C222.538 37.9922 222.45 38.4948 222.272 38.9531C222.095 39.4115 221.851 39.8073 221.538 40.1406C221.226 40.474 220.853 40.7344 220.421 40.9219C219.989 41.1042 219.52 41.1953 219.015 41.1953C218.452 41.1953 217.947 41.0781 217.499 40.8438C217.056 40.6094 216.679 40.2734 216.366 39.8359C216.059 39.3932 215.825 38.8542 215.663 38.2188C215.502 37.5833 215.421 36.8672 215.421 36.0703C215.421 35.0964 215.528 34.2135 215.741 33.4219C215.96 32.625 216.267 31.9453 216.663 31.3828C217.064 30.8151 217.546 30.3776 218.108 30.0703C218.671 29.763 219.299 29.6094 219.991 29.6094C220.762 29.6094 221.382 29.7161 221.851 29.9297V31.1406C221.272 30.8438 220.663 30.6953 220.022 30.6953C219.522 30.6953 219.072 30.8073 218.671 31.0312C218.27 31.2552 217.926 31.5729 217.64 31.9844C217.353 32.3906 217.132 32.8828 216.976 33.4609C216.825 34.0391 216.749 34.6823 216.749 35.3906H216.78C217.296 34.4583 218.147 33.9922 219.335 33.9922C219.825 33.9922 220.265 34.0755 220.655 34.2422C221.051 34.4089 221.387 34.6458 221.663 34.9531C221.944 35.2552 222.161 35.6172 222.312 36.0391C222.463 36.4609 222.538 36.9297 222.538 37.4453ZM221.226 37.6094C221.226 37.2188 221.176 36.8672 221.077 36.5547C220.978 36.2422 220.835 35.9766 220.647 35.7578C220.465 35.5391 220.239 35.3724 219.968 35.2578C219.697 35.138 219.39 35.0781 219.046 35.0781C218.728 35.0781 218.434 35.138 218.163 35.2578C217.892 35.3776 217.658 35.5417 217.46 35.75C217.262 35.9531 217.106 36.1927 216.991 36.4688C216.882 36.7396 216.827 37.0286 216.827 37.3359C216.827 37.7214 216.882 38.0833 216.991 38.4219C217.101 38.7552 217.254 39.0469 217.452 39.2969C217.65 39.5469 217.884 39.7448 218.155 39.8906C218.431 40.0312 218.736 40.1016 219.069 40.1016C219.392 40.1016 219.687 40.0417 219.952 39.9219C220.218 39.7969 220.444 39.625 220.632 39.4062C220.819 39.1875 220.965 38.9271 221.069 38.625C221.174 38.3177 221.226 37.9792 221.226 37.6094ZM225.081 41.1719C224.841 41.1719 224.636 41.0859 224.464 40.9141C224.297 40.7422 224.214 40.5365 224.214 40.2969C224.214 40.0573 224.297 39.8516 224.464 39.6797C224.636 39.5026 224.841 39.4141 225.081 39.4141C225.326 39.4141 225.534 39.5026 225.706 39.6797C225.878 39.8516 225.964 40.0573 225.964 40.2969C225.964 40.5365 225.878 40.7422 225.706 40.9141C225.534 41.0859 225.326 41.1719 225.081 41.1719ZM234.413 37.8281C234.413 38.3333 234.316 38.7943 234.124 39.2109C233.936 39.6224 233.668 39.9766 233.319 40.2734C232.975 40.5651 232.561 40.7917 232.077 40.9531C231.592 41.1146 231.059 41.1953 230.475 41.1953C229.408 41.1953 228.559 40.9922 227.928 40.5859V39.2109C228.684 39.8047 229.548 40.1016 230.522 40.1016C230.913 40.1016 231.264 40.0521 231.577 39.9531C231.895 39.8542 232.165 39.7109 232.389 39.5234C232.619 39.3359 232.793 39.1094 232.913 38.8438C233.038 38.5781 233.1 38.2786 233.1 37.9453C233.1 36.4818 232.059 35.75 229.975 35.75H229.046V34.6641H229.928C231.772 34.6641 232.694 33.9766 232.694 32.6016C232.694 31.3307 231.991 30.6953 230.585 30.6953C229.793 30.6953 229.051 30.9609 228.358 31.4922V30.25C229.072 29.8229 229.921 29.6094 230.905 29.6094C231.374 29.6094 231.798 29.6745 232.178 29.8047C232.559 29.9349 232.884 30.1172 233.155 30.3516C233.426 30.5859 233.634 30.8672 233.78 31.1953C233.931 31.5234 234.007 31.8854 234.007 32.2812C234.007 33.7552 233.262 34.7031 231.772 35.125V35.1562C232.152 35.1979 232.504 35.2917 232.827 35.4375C233.15 35.5781 233.428 35.763 233.663 35.9922C233.897 36.2214 234.079 36.4922 234.21 36.8047C234.345 37.112 234.413 37.4531 234.413 37.8281ZM242.393 29.7969V37.1953H243.831V38.3672H242.393V41H241.128V38.3672H235.862V37.2578C236.351 36.7057 236.846 36.1172 237.346 35.4922C237.846 34.862 238.323 34.224 238.776 33.5781C239.234 32.9323 239.656 32.2891 240.042 31.6484C240.432 31.0026 240.76 30.3854 241.026 29.7969H242.393ZM237.307 37.1953H241.128V31.7109C240.737 32.3932 240.367 33.0026 240.018 33.5391C239.669 34.0755 239.336 34.5625 239.018 35C238.706 35.4375 238.406 35.8333 238.12 36.1875C237.833 36.5417 237.562 36.8776 237.307 37.1953Z" fill="#006908"/>
<path d="M4.24219 64H3.28125V56.7402C3.20703 56.8145 3.09766 56.9004 2.95312 56.998C2.8125 57.0918 2.65234 57.1855 2.47266 57.2793C2.29688 57.373 2.10938 57.4609 1.91016 57.543C1.71484 57.625 1.52344 57.6895 1.33594 57.7363V56.7637C1.54688 56.7051 1.76953 56.627 2.00391 56.5293C2.24219 56.4277 2.47461 56.3164 2.70117 56.1953C2.93164 56.0703 3.14844 55.9414 3.35156 55.8086C3.55469 55.6719 3.73047 55.5391 3.87891 55.4102H4.24219V64ZM7.77539 59.1719C7.5957 59.1719 7.44141 59.1074 7.3125 58.9785C7.1875 58.8496 7.125 58.6953 7.125 58.5156C7.125 58.3359 7.1875 58.1836 7.3125 58.0586C7.44141 57.9336 7.5957 57.8711 7.77539 57.8711C7.95898 57.8711 8.11523 57.9336 8.24414 58.0586C8.37305 58.1836 8.4375 58.3359 8.4375 58.5156C8.4375 58.6953 8.37305 58.8496 8.24414 58.9785C8.11523 59.1074 7.95898 59.1719 7.77539 59.1719ZM7.77539 64.1289C7.5957 64.1289 7.44141 64.0645 7.3125 63.9355C7.1875 63.8066 7.125 63.6523 7.125 63.4727C7.125 63.293 7.1875 63.1387 7.3125 63.0098C7.44141 62.877 7.5957 62.8105 7.77539 62.8105C7.95898 62.8105 8.11523 62.877 8.24414 63.0098C8.37305 63.1387 8.4375 63.293 8.4375 63.4727C8.4375 63.6523 8.37305 63.8066 8.24414 63.9355C8.11523 64.0645 7.95898 64.1289 7.77539 64.1289ZM15.0469 59.7637C15.0469 60.4668 14.9824 61.0898 14.8535 61.6328C14.7285 62.1758 14.5449 62.6348 14.3027 63.0098C14.0645 63.3809 13.7695 63.6641 13.418 63.8594C13.0703 64.0508 12.6738 64.1465 12.2285 64.1465C11.8066 64.1465 11.4297 64.0547 11.0977 63.8711C10.7695 63.6836 10.4922 63.4121 10.2656 63.0566C10.0391 62.7012 9.86719 62.2656 9.75 61.75C9.63281 61.2305 9.57422 60.6367 9.57422 59.9688C9.57422 59.2344 9.63477 58.5859 9.75586 58.0234C9.88086 57.4609 10.0625 56.9902 10.3008 56.6113C10.5391 56.2285 10.834 55.9414 11.1855 55.75C11.541 55.5547 11.9473 55.457 12.4043 55.457C14.166 55.457 15.0469 56.8926 15.0469 59.7637ZM14.0625 59.8574C14.0625 57.4668 13.4941 56.2715 12.3574 56.2715C11.1582 56.2715 10.5586 57.4883 10.5586 59.9219C10.5586 62.1914 11.1465 63.3262 12.3223 63.3262C13.4824 63.3262 14.0625 62.1699 14.0625 59.8574ZM21.5156 59.7637C21.5156 60.4668 21.4512 61.0898 21.3223 61.6328C21.1973 62.1758 21.0137 62.6348 20.7715 63.0098C20.5332 63.3809 20.2383 63.6641 19.8867 63.8594C19.5391 64.0508 19.1426 64.1465 18.6973 64.1465C18.2754 64.1465 17.8984 64.0547 17.5664 63.8711C17.2383 63.6836 16.9609 63.4121 16.7344 63.0566C16.5078 62.7012 16.3359 62.2656 16.2188 61.75C16.1016 61.2305 16.043 60.6367 16.043 59.9688C16.043 59.2344 16.1035 58.5859 16.2246 58.0234C16.3496 57.4609 16.5312 56.9902 16.7695 56.6113C17.0078 56.2285 17.3027 55.9414 17.6543 55.75C18.0098 55.5547 18.416 55.457 18.873 55.457C20.6348 55.457 21.5156 56.8926 21.5156 59.7637ZM20.5312 59.8574C20.5312 57.4668 19.9629 56.2715 18.8262 56.2715C17.627 56.2715 17.0273 57.4883 17.0273 59.9219C17.0273 62.1914 17.6152 63.3262 18.791 63.3262C19.9512 63.3262 20.5312 62.1699 20.5312 59.8574ZM27.3867 60.8242V64H26.4023V55.5977H28.7109C29.6094 55.5977 30.3047 55.8164 30.7969 56.2539C31.293 56.6914 31.541 57.3086 31.541 58.1055C31.541 58.9023 31.2656 59.5547 30.7148 60.0625C30.168 60.5703 29.4277 60.8242 28.4941 60.8242H27.3867ZM27.3867 56.4883V59.9336H28.418C29.0977 59.9336 29.6152 59.7793 29.9707 59.4707C30.3301 59.1582 30.5098 58.7188 30.5098 58.1523C30.5098 57.043 29.8535 56.4883 28.541 56.4883H27.3867ZM41.6953 64H40.7168V58.3633C40.7168 57.918 40.7441 57.373 40.7988 56.7285H40.7754C40.6816 57.1074 40.5977 57.3789 40.5234 57.543L37.6523 64H37.1719L34.3066 57.5898C34.2246 57.4023 34.1406 57.1152 34.0547 56.7285H34.0312C34.0625 57.0645 34.0781 57.6133 34.0781 58.375V64H33.1289V55.5977H34.4297L37.0078 61.457C37.207 61.9062 37.3359 62.2422 37.3945 62.4648H37.4297C37.5977 62.0039 37.7324 61.6602 37.834 61.4336L40.4648 55.5977H41.6953V64Z" fill="#545969"/>
<path d="M176.263 16H174.479L173.597 13.5049H169.741L168.894 16H167.116L170.787 6.19727H172.619L176.263 16ZM173.166 12.1787L171.806 8.26855C171.765 8.14095 171.721 7.93587 171.676 7.65332H171.648C171.607 7.91309 171.562 8.11816 171.512 8.26855L170.165 12.1787H173.166ZM183.543 16H181.957V14.8926H181.93C181.469 15.7402 180.754 16.1641 179.783 16.1641C178.129 16.1641 177.302 15.1706 177.302 13.1836V9H178.888V13.0195C178.888 14.2773 179.373 14.9062 180.344 14.9062C180.813 14.9062 181.198 14.7331 181.499 14.3867C181.804 14.0404 181.957 13.5869 181.957 13.0264V9H183.543V16ZM191.985 15.4395C191.985 18.0098 190.693 19.2949 188.109 19.2949C187.198 19.2949 186.403 19.1423 185.724 18.8369V17.3877C186.489 17.8252 187.216 18.0439 187.904 18.0439C189.568 18.0439 190.399 17.2259 190.399 15.5898V14.8242H190.372C189.848 15.7174 189.06 16.1641 188.007 16.1641C187.155 16.1641 186.466 15.8542 185.942 15.2344C185.423 14.61 185.163 13.7738 185.163 12.7256C185.163 11.5361 185.443 10.5905 186.004 9.88867C186.564 9.18685 187.335 8.83594 188.314 8.83594C189.24 8.83594 189.925 9.21419 190.372 9.9707H190.399V9H191.985V15.4395ZM190.413 12.7939V11.8848C190.413 11.3926 190.249 10.9733 189.921 10.627C189.597 10.276 189.192 10.1006 188.704 10.1006C188.103 10.1006 187.631 10.3239 187.289 10.7705C186.952 11.2126 186.783 11.8324 186.783 12.6299C186.783 13.318 186.945 13.8695 187.269 14.2842C187.597 14.6943 188.03 14.8994 188.567 14.8994C189.114 14.8994 189.559 14.7035 189.9 14.3115C190.242 13.915 190.413 13.4092 190.413 12.7939ZM200.154 16H198.568V14.8926H198.541C198.081 15.7402 197.365 16.1641 196.395 16.1641C194.74 16.1641 193.913 15.1706 193.913 13.1836V9H195.499V13.0195C195.499 14.2773 195.984 14.9062 196.955 14.9062C197.424 14.9062 197.81 14.7331 198.11 14.3867C198.416 14.0404 198.568 13.5869 198.568 13.0264V9H200.154V16ZM201.788 15.7812V14.3115C202.381 14.7627 203.035 14.9883 203.75 14.9883C204.707 14.9883 205.186 14.7057 205.186 14.1406C205.186 13.9811 205.145 13.8467 205.062 13.7373C204.98 13.6234 204.869 13.5231 204.728 13.4365C204.591 13.3499 204.427 13.2725 204.235 13.2041C204.049 13.1357 203.839 13.0583 203.606 12.9717C203.319 12.8577 203.06 12.737 202.827 12.6094C202.599 12.4818 202.408 12.3382 202.253 12.1787C202.103 12.0146 201.989 11.8301 201.911 11.625C201.834 11.4199 201.795 11.1807 201.795 10.9072C201.795 10.57 201.875 10.2738 202.034 10.0186C202.194 9.75879 202.408 9.54232 202.677 9.36914C202.946 9.19141 203.251 9.05924 203.593 8.97266C203.935 8.88151 204.288 8.83594 204.652 8.83594C205.299 8.83594 205.878 8.93392 206.389 9.12988V10.5176C205.896 10.1803 205.331 10.0117 204.693 10.0117C204.493 10.0117 204.311 10.0322 204.146 10.0732C203.987 10.1143 203.85 10.1712 203.736 10.2441C203.622 10.3171 203.534 10.4059 203.47 10.5107C203.406 10.611 203.374 10.7227 203.374 10.8457C203.374 10.9961 203.406 11.1237 203.47 11.2285C203.534 11.3333 203.627 11.4268 203.75 11.5088C203.878 11.5863 204.028 11.6592 204.201 11.7275C204.379 11.7913 204.582 11.862 204.81 11.9395C205.11 12.0625 205.379 12.1878 205.616 12.3154C205.858 12.443 206.063 12.5889 206.231 12.7529C206.4 12.9124 206.53 13.0993 206.621 13.3135C206.712 13.5231 206.758 13.7738 206.758 14.0654C206.758 14.4209 206.676 14.7308 206.512 14.9951C206.348 15.2594 206.129 15.4782 205.855 15.6514C205.582 15.8245 205.265 15.9521 204.905 16.0342C204.55 16.1208 204.174 16.1641 203.777 16.1641C203.012 16.1641 202.349 16.0365 201.788 15.7812ZM211.96 15.9248C211.65 16.0798 211.242 16.1572 210.736 16.1572C209.378 16.1572 208.699 15.5055 208.699 14.2021V10.2441H207.53V9H208.699V7.37988L210.285 6.92871V9H211.96V10.2441H210.285V13.7441C210.285 14.1589 210.36 14.4551 210.511 14.6328C210.661 14.8105 210.912 14.8994 211.263 14.8994C211.532 14.8994 211.764 14.8219 211.96 14.667V15.9248ZM222.193 15.6787C221.633 16.0023 220.97 16.1641 220.204 16.1641C219.165 16.1641 218.326 15.8405 217.688 15.1934C217.05 14.5417 216.731 13.6986 216.731 12.6641C216.731 11.5111 217.073 10.5859 217.757 9.88867C218.445 9.18685 219.363 8.83594 220.512 8.83594C221.15 8.83594 221.713 8.94759 222.2 9.1709V10.6475C221.713 10.2829 221.193 10.1006 220.642 10.1006C219.972 10.1006 219.423 10.3285 218.994 10.7842C218.566 11.2354 218.352 11.8278 218.352 12.5615C218.352 13.2861 218.552 13.8581 218.953 14.2773C219.359 14.6966 219.901 14.9062 220.58 14.9062C221.15 14.9062 221.688 14.7035 222.193 14.2979V15.6787ZM229.146 16H227.607V14.9062H227.58C227.097 15.7448 226.388 16.1641 225.454 16.1641C224.766 16.1641 224.226 15.9772 223.834 15.6035C223.447 15.2298 223.253 14.7354 223.253 14.1201C223.253 12.7985 224.014 12.0283 225.536 11.8096L227.614 11.5156C227.614 10.5176 227.14 10.0186 226.192 10.0186C225.358 10.0186 224.606 10.3057 223.937 10.8799V9.49219C224.675 9.05469 225.527 8.83594 226.493 8.83594C228.261 8.83594 229.146 9.70638 229.146 11.4473V16ZM227.614 12.5615L226.145 12.7666C225.689 12.8258 225.345 12.9375 225.112 13.1016C224.884 13.2611 224.771 13.5436 224.771 13.9492C224.771 14.2454 224.875 14.4893 225.085 14.6807C225.299 14.8675 225.584 14.9609 225.939 14.9609C226.423 14.9609 226.821 14.7923 227.136 14.4551C227.455 14.1133 227.614 13.6849 227.614 13.1699V12.5615ZM230.649 15.7812V14.3115C231.242 14.7627 231.896 14.9883 232.611 14.9883C233.568 14.9883 234.047 14.7057 234.047 14.1406C234.047 13.9811 234.006 13.8467 233.924 13.7373C233.842 13.6234 233.73 13.5231 233.589 13.4365C233.452 13.3499 233.288 13.2725 233.097 13.2041C232.91 13.1357 232.7 13.0583 232.468 12.9717C232.181 12.8577 231.921 12.737 231.688 12.6094C231.461 12.4818 231.269 12.3382 231.114 12.1787C230.964 12.0146 230.85 11.8301 230.772 11.625C230.695 11.4199 230.656 11.1807 230.656 10.9072C230.656 10.57 230.736 10.2738 230.896 10.0186C231.055 9.75879 231.269 9.54232 231.538 9.36914C231.807 9.19141 232.112 9.05924 232.454 8.97266C232.796 8.88151 233.149 8.83594 233.514 8.83594C234.161 8.83594 234.74 8.93392 235.25 9.12988V10.5176C234.758 10.1803 234.193 10.0117 233.555 10.0117C233.354 10.0117 233.172 10.0322 233.008 10.0732C232.848 10.1143 232.712 10.1712 232.598 10.2441C232.484 10.3171 232.395 10.4059 232.331 10.5107C232.267 10.611 232.235 10.7227 232.235 10.8457C232.235 10.9961 232.267 11.1237 232.331 11.2285C232.395 11.3333 232.488 11.4268 232.611 11.5088C232.739 11.5863 232.889 11.6592 233.062 11.7275C233.24 11.7913 233.443 11.862 233.671 11.9395C233.972 12.0625 234.241 12.1878 234.478 12.3154C234.719 12.443 234.924 12.5889 235.093 12.7529C235.261 12.9124 235.391 13.0993 235.482 13.3135C235.574 13.5231 235.619 13.7738 235.619 14.0654C235.619 14.4209 235.537 14.7308 235.373 14.9951C235.209 15.2594 234.99 15.4782 234.717 15.6514C234.443 15.8245 234.127 15.9521 233.767 16.0342C233.411 16.1208 233.035 16.1641 232.639 16.1641C231.873 16.1641 231.21 16.0365 230.649 15.7812ZM243.351 16H241.765V12.1719C241.765 10.7865 241.302 10.0938 240.377 10.0938C239.912 10.0938 239.52 10.2943 239.201 10.6953C238.882 11.0964 238.723 11.609 238.723 12.2334V16H237.13V5.63672H238.723V10.1621H238.75C239.279 9.27799 240.035 8.83594 241.02 8.83594C242.574 8.83594 243.351 9.78613 243.351 11.6865V16ZM246.892 14.9883H246.864V16H245.278V5.63672H246.864V10.2305H246.892C247.434 9.30078 248.227 8.83594 249.271 8.83594C250.155 8.83594 250.845 9.15039 251.342 9.7793C251.843 10.4036 252.094 11.2422 252.094 12.2949C252.094 13.4661 251.813 14.4049 251.253 15.1113C250.692 15.8132 249.927 16.1641 248.956 16.1641C248.045 16.1641 247.356 15.7721 246.892 14.9883ZM246.851 12.2061V13.0742C246.851 13.5846 247.012 14.0176 247.336 14.373C247.664 14.7285 248.079 14.9062 248.58 14.9062C249.168 14.9062 249.628 14.6784 249.961 14.2227C250.298 13.7624 250.467 13.1221 250.467 12.3018C250.467 11.6136 250.31 11.0758 249.995 10.6885C249.685 10.2965 249.264 10.1006 248.73 10.1006C248.165 10.1006 247.71 10.3011 247.363 10.7021C247.021 11.1032 246.851 11.6045 246.851 12.2061ZM258.923 16H257.385V14.9062H257.357C256.874 15.7448 256.166 16.1641 255.231 16.1641C254.543 16.1641 254.003 15.9772 253.611 15.6035C253.224 15.2298 253.03 14.7354 253.03 14.1201C253.03 12.7985 253.791 12.0283 255.313 11.8096L257.392 11.5156C257.392 10.5176 256.918 10.0186 255.97 10.0186C255.136 10.0186 254.384 10.3057 253.714 10.8799V9.49219C254.452 9.05469 255.304 8.83594 256.271 8.83594C258.039 8.83594 258.923 9.70638 258.923 11.4473V16ZM257.392 12.5615L255.922 12.7666C255.466 12.8258 255.122 12.9375 254.89 13.1016C254.662 13.2611 254.548 13.5436 254.548 13.9492C254.548 14.2454 254.653 14.4893 254.862 14.6807C255.076 14.8675 255.361 14.9609 255.717 14.9609C256.2 14.9609 256.599 14.7923 256.913 14.4551C257.232 14.1133 257.392 13.6849 257.392 13.1699V12.5615ZM265.875 15.6787C265.314 16.0023 264.651 16.1641 263.886 16.1641C262.847 16.1641 262.008 15.8405 261.37 15.1934C260.732 14.5417 260.413 13.6986 260.413 12.6641C260.413 11.5111 260.755 10.5859 261.438 9.88867C262.127 9.18685 263.045 8.83594 264.193 8.83594C264.831 8.83594 265.394 8.94759 265.882 9.1709V10.6475C265.394 10.2829 264.875 10.1006 264.323 10.1006C263.653 10.1006 263.104 10.3285 262.676 10.7842C262.247 11.2354 262.033 11.8278 262.033 12.5615C262.033 13.2861 262.234 13.8581 262.635 14.2773C263.04 14.6966 263.583 14.9062 264.262 14.9062C264.831 14.9062 265.369 14.7035 265.875 14.2979V15.6787ZM273.805 16H271.795L269.074 12.6367H269.047V16H267.454V5.63672H269.047V12.2061H269.074L271.645 9H273.552L270.66 12.377L273.805 16Z" fill="#687385"/>
<path d="M10.2627 16H8.47852L7.59668 13.5049H3.74121L2.89355 16H1.11621L4.78711 6.19727H6.61914L10.2627 16ZM7.16602 12.1787L5.80566 8.26855C5.76465 8.14095 5.72135 7.93587 5.67578 7.65332H5.64844C5.60742 7.91309 5.56185 8.11816 5.51172 8.26855L4.16504 12.1787H7.16602ZM17.543 16H15.957V14.8926H15.9297C15.4694 15.7402 14.7539 16.1641 13.7832 16.1641C12.1289 16.1641 11.3018 15.1706 11.3018 13.1836V9H12.8877V13.0195C12.8877 14.2773 13.373 14.9062 14.3438 14.9062C14.8132 14.9062 15.1982 14.7331 15.499 14.3867C15.8044 14.0404 15.957 13.5869 15.957 13.0264V9H17.543V16ZM25.9854 15.4395C25.9854 18.0098 24.6934 19.2949 22.1094 19.2949C21.1979 19.2949 20.4027 19.1423 19.7236 18.8369V17.3877C20.4893 17.8252 21.2161 18.0439 21.9043 18.0439C23.5677 18.0439 24.3994 17.2259 24.3994 15.5898V14.8242H24.3721C23.848 15.7174 23.0596 16.1641 22.0068 16.1641C21.1546 16.1641 20.4665 15.8542 19.9424 15.2344C19.4229 14.61 19.1631 13.7738 19.1631 12.7256C19.1631 11.5361 19.4434 10.5905 20.0039 9.88867C20.5645 9.18685 21.3346 8.83594 22.3145 8.83594C23.2396 8.83594 23.9255 9.21419 24.3721 9.9707H24.3994V9H25.9854V15.4395ZM24.4131 12.7939V11.8848C24.4131 11.3926 24.249 10.9733 23.9209 10.627C23.5973 10.276 23.1917 10.1006 22.7041 10.1006C22.1025 10.1006 21.6309 10.3239 21.2891 10.7705C20.9518 11.2126 20.7832 11.8324 20.7832 12.6299C20.7832 13.318 20.945 13.8695 21.2686 14.2842C21.5967 14.6943 22.0296 14.8994 22.5674 14.8994C23.1143 14.8994 23.5586 14.7035 23.9004 14.3115C24.2422 13.915 24.4131 13.4092 24.4131 12.7939ZM34.1543 16H32.5684V14.8926H32.541C32.0807 15.7402 31.3652 16.1641 30.3945 16.1641C28.7402 16.1641 27.9131 15.1706 27.9131 13.1836V9H29.499V13.0195C29.499 14.2773 29.9844 14.9062 30.9551 14.9062C31.4245 14.9062 31.8096 14.7331 32.1104 14.3867C32.4157 14.0404 32.5684 13.5869 32.5684 13.0264V9H34.1543V16ZM35.7881 15.7812V14.3115C36.3805 14.7627 37.0345 14.9883 37.75 14.9883C38.707 14.9883 39.1855 14.7057 39.1855 14.1406C39.1855 13.9811 39.1445 13.8467 39.0625 13.7373C38.9805 13.6234 38.8688 13.5231 38.7275 13.4365C38.5908 13.3499 38.4268 13.2725 38.2354 13.2041C38.0485 13.1357 37.8389 13.0583 37.6064 12.9717C37.3193 12.8577 37.0596 12.737 36.8271 12.6094C36.5993 12.4818 36.4079 12.3382 36.2529 12.1787C36.1025 12.0146 35.9886 11.8301 35.9111 11.625C35.8337 11.4199 35.7949 11.1807 35.7949 10.9072C35.7949 10.57 35.8747 10.2738 36.0342 10.0186C36.1937 9.75879 36.4079 9.54232 36.6768 9.36914C36.9456 9.19141 37.251 9.05924 37.5928 8.97266C37.9346 8.88151 38.2878 8.83594 38.6523 8.83594C39.2995 8.83594 39.8783 8.93392 40.3887 9.12988V10.5176C39.8965 10.1803 39.3314 10.0117 38.6934 10.0117C38.4928 10.0117 38.3105 10.0322 38.1465 10.0732C37.987 10.1143 37.8503 10.1712 37.7363 10.2441C37.6224 10.3171 37.5335 10.4059 37.4697 10.5107C37.4059 10.611 37.374 10.7227 37.374 10.8457C37.374 10.9961 37.4059 11.1237 37.4697 11.2285C37.5335 11.3333 37.627 11.4268 37.75 11.5088C37.8776 11.5863 38.028 11.6592 38.2012 11.7275C38.3789 11.7913 38.5817 11.862 38.8096 11.9395C39.1104 12.0625 39.3792 12.1878 39.6162 12.3154C39.8577 12.443 40.0628 12.5889 40.2314 12.7529C40.4001 12.9124 40.5299 13.0993 40.6211 13.3135C40.7122 13.5231 40.7578 13.7738 40.7578 14.0654C40.7578 14.4209 40.6758 14.7308 40.5117 14.9951C40.3477 15.2594 40.1289 15.4782 39.8555 15.6514C39.582 15.8245 39.2653 15.9521 38.9053 16.0342C38.5498 16.1208 38.1738 16.1641 37.7773 16.1641C37.0117 16.1641 36.3486 16.0365 35.7881 15.7812ZM45.96 15.9248C45.6501 16.0798 45.2422 16.1572 44.7363 16.1572C43.3783 16.1572 42.6992 15.5055 42.6992 14.2021V10.2441H41.5303V9H42.6992V7.37988L44.2852 6.92871V9H45.96V10.2441H44.2852V13.7441C44.2852 14.1589 44.3604 14.4551 44.5107 14.6328C44.6611 14.8105 44.9118 14.8994 45.2627 14.8994C45.5316 14.8994 45.764 14.8219 45.96 14.667V15.9248ZM50.7451 15.7812V14.3115C51.3376 14.7627 51.9915 14.9883 52.707 14.9883C53.6641 14.9883 54.1426 14.7057 54.1426 14.1406C54.1426 13.9811 54.1016 13.8467 54.0195 13.7373C53.9375 13.6234 53.8258 13.5231 53.6846 13.4365C53.5479 13.3499 53.3838 13.2725 53.1924 13.2041C53.0055 13.1357 52.7959 13.0583 52.5635 12.9717C52.2764 12.8577 52.0166 12.737 51.7842 12.6094C51.5563 12.4818 51.3649 12.3382 51.21 12.1787C51.0596 12.0146 50.9456 11.8301 50.8682 11.625C50.7907 11.4199 50.752 11.1807 50.752 10.9072C50.752 10.57 50.8317 10.2738 50.9912 10.0186C51.1507 9.75879 51.3649 9.54232 51.6338 9.36914C51.9027 9.19141 52.208 9.05924 52.5498 8.97266C52.8916 8.88151 53.2448 8.83594 53.6094 8.83594C54.2565 8.83594 54.8353 8.93392 55.3457 9.12988V10.5176C54.8535 10.1803 54.2884 10.0117 53.6504 10.0117C53.4499 10.0117 53.2676 10.0322 53.1035 10.0732C52.944 10.1143 52.8073 10.1712 52.6934 10.2441C52.5794 10.3171 52.4906 10.4059 52.4268 10.5107C52.363 10.611 52.3311 10.7227 52.3311 10.8457C52.3311 10.9961 52.363 11.1237 52.4268 11.2285C52.4906 11.3333 52.584 11.4268 52.707 11.5088C52.8346 11.5863 52.985 11.6592 53.1582 11.7275C53.3359 11.7913 53.5387 11.862 53.7666 11.9395C54.0674 12.0625 54.3363 12.1878 54.5732 12.3154C54.8148 12.443 55.0199 12.5889 55.1885 12.7529C55.3571 12.9124 55.487 13.0993 55.5781 13.3135C55.6693 13.5231 55.7148 13.7738 55.7148 14.0654C55.7148 14.4209 55.6328 14.7308 55.4688 14.9951C55.3047 15.2594 55.0859 15.4782 54.8125 15.6514C54.5391 15.8245 54.2223 15.9521 53.8623 16.0342C53.5068 16.1208 53.1309 16.1641 52.7344 16.1641C51.9688 16.1641 51.3057 16.0365 50.7451 15.7812ZM58.8389 14.9678H58.8115V19.2197H57.2256V9H58.8115V10.2305H58.8389C59.3812 9.30078 60.1742 8.83594 61.2178 8.83594C62.1064 8.83594 62.7992 9.14811 63.2959 9.77246C63.7926 10.3968 64.041 11.2354 64.041 12.2881C64.041 13.4548 63.7607 14.389 63.2002 15.0908C62.6396 15.7926 61.874 16.1436 60.9033 16.1436C60.0101 16.1436 59.3219 15.7516 58.8389 14.9678ZM58.7979 12.2061V13.0742C58.7979 13.5846 58.9596 14.0176 59.2832 14.373C59.6113 14.7285 60.026 14.9062 60.5273 14.9062C61.1152 14.9062 61.5755 14.6784 61.9082 14.2227C62.2454 13.7624 62.4141 13.1221 62.4141 12.3018C62.4141 11.6136 62.2568 11.0758 61.9424 10.6885C61.6325 10.2965 61.2109 10.1006 60.6777 10.1006C60.1126 10.1006 59.6569 10.3011 59.3105 10.7021C58.9688 11.1032 58.7979 11.6045 58.7979 12.2061ZM71.5879 12.9307H66.8164C66.8346 13.5778 67.0329 14.0768 67.4111 14.4277C67.7939 14.7786 68.318 14.9541 68.9834 14.9541C69.7308 14.9541 70.4167 14.7308 71.041 14.2842V15.5625C70.403 15.9635 69.5599 16.1641 68.5117 16.1641C67.4818 16.1641 66.6729 15.8473 66.085 15.2139C65.5016 14.5758 65.21 13.6803 65.21 12.5273C65.21 11.4382 65.5312 10.5518 66.1738 9.86816C66.821 9.18001 67.623 8.83594 68.5801 8.83594C69.5371 8.83594 70.2777 9.14355 70.8018 9.75879C71.3258 10.374 71.5879 11.2285 71.5879 12.3223V12.9307ZM70.0566 11.8096C70.0521 11.2399 69.9176 10.7979 69.6533 10.4834C69.389 10.1644 69.0244 10.0049 68.5596 10.0049C68.1038 10.0049 67.7165 10.1712 67.3975 10.5039C67.083 10.8366 66.8893 11.2718 66.8164 11.8096H70.0566ZM79.333 16H77.7471V12.0557C77.7471 10.7477 77.2845 10.0938 76.3594 10.0938C75.8763 10.0938 75.4775 10.276 75.1631 10.6406C74.8486 11.0007 74.6914 11.4564 74.6914 12.0078V16H73.0986V9H74.6914V10.1621H74.7188C75.2428 9.27799 75.9993 8.83594 76.9883 8.83594C77.7493 8.83594 78.3304 9.08431 78.7314 9.58105C79.1325 10.0732 79.333 10.7865 79.333 11.7207V16ZM87.6387 16H86.0527V14.8105H86.0254C85.515 15.7129 84.7288 16.1641 83.667 16.1641C82.8057 16.1641 82.1152 15.8519 81.5957 15.2275C81.0807 14.5986 80.8232 13.7441 80.8232 12.6641C80.8232 11.5065 81.1081 10.5791 81.6777 9.88184C82.252 9.18457 83.0153 8.83594 83.9678 8.83594C84.9111 8.83594 85.597 9.21419 86.0254 9.9707H86.0527V5.63672H87.6387V16ZM86.0732 12.8008V11.8848C86.0732 11.388 85.9115 10.9665 85.5879 10.6201C85.2643 10.2738 84.8519 10.1006 84.3506 10.1006C83.7581 10.1006 83.291 10.3216 82.9492 10.7637C82.612 11.2057 82.4434 11.8187 82.4434 12.6025C82.4434 13.3135 82.6051 13.8763 82.9287 14.291C83.2568 14.7012 83.6966 14.9062 84.248 14.9062C84.7904 14.9062 85.2301 14.708 85.5674 14.3115C85.9046 13.9105 86.0732 13.4069 86.0732 12.8008Z" fill="#687385"/>
<line opacity="0.3" x1="0.5" y1="78" x2="0.5" y2="165.901" stroke="#C0C8D2"/>
<line opacity="0.3" x1="56.002" y1="78" x2="56.002" y2="165.901" stroke="#C0C8D2"/>
<line opacity="0.3" x1="111.503" y1="78" x2="111.503" y2="165.901" stroke="#C0C8D2"/>
<line opacity="0.3" x1="167.005" y1="78" x2="167.005" y2="165.901" stroke="#C0C8D2"/>
<line opacity="0.3" x1="222.507" y1="78" x2="222.507" y2="165.901" stroke="#C0C8D2"/>
<line opacity="0.3" x1="278.008" y1="78" x2="278.008" y2="165.901" stroke="#C0C8D2"/>
<line opacity="0.3" x1="333.51" y1="78" x2="333.51" y2="165.901" stroke="#C0C8D2"/>
<line opacity="0.3" x1="389.012" y1="78" x2="389.012" y2="165.901" stroke="#C0C8D2"/>
<line opacity="0.3" x1="444.513" y1="78" x2="444.513" y2="165.901" stroke="#C0C8D2"/>
<line opacity="0.3" x1="500.015" y1="78" x2="500.015" y2="165.901" stroke="#C0C8D2"/>
<line opacity="0.3" x1="555.517" y1="78" x2="555.517" y2="165.901" stroke="#C0C8D2"/>
<line opacity="0.3" x1="611.018" y1="78" x2="611.018" y2="165.901" stroke="#C0C8D2"/>
<line opacity="0.3" x1="666.52" y1="78" x2="666.52" y2="165.901" stroke="#C0C8D2"/>
<line opacity="0.3" x1="722.021" y1="78" x2="722.021" y2="165.901" stroke="#C0C8D2"/>
<line opacity="0.3" x1="777.522" y1="78" x2="777.522" y2="165.901" stroke="#C0C8D2"/>
<line opacity="0.3" x1="833.024" y1="78" x2="833.024" y2="165.901" stroke="#C0C8D2"/>
<line opacity="0.3" x1="888.526" y1="78" x2="888.526" y2="165.901" stroke="#C0C8D2"/>
<line opacity="0.3" x1="944.027" y1="78" x2="944.027" y2="165.901" stroke="#C0C8D2"/>
<line opacity="0.3" x1="999.529" y1="78" x2="999.529" y2="165.901" stroke="#C0C8D2"/>
<line opacity="0.3" x1="1055.03" y1="78" x2="1055.03" y2="165.901" stroke="#C0C8D2"/>
<line opacity="0.3" x1="1110.53" y1="78" x2="1110.53" y2="165.901" stroke="#C0C8D2"/>
<line opacity="0.3" x1="1166.03" y1="78" x2="1166.03" y2="165.901" stroke="#C0C8D2"/>
<line opacity="0.3" x1="1224.12" y1="78" x2="1224.12" y2="165.901" stroke="#C0C8D2"/>
<line opacity="0.3" y1="166.5" x2="1225" y2="166.5" stroke="#C0C8D2"/>
<path d="M2.75586 164L53.7248 161.152L105.49 160.013L156.459 157.735L205.039 156.026L258.397 154.318L306.977 152.04L357.946 149.762L408.915 146.344L460.68 141.788L511.649 138.371L562.618 133.815L612.791 128.689L662.963 124.132L713.932 118.437L765.698 112.742L815.87 107.616L866.839 101.351L917.808 98.5033L968.777 93.947L1019.75 89.3907L1071.51 86.543L1121.68 82.5563L1173.45 80.2781L1223.62 78" stroke="#C0C8D2" stroke-linecap="round" stroke-linejoin="round"/>
<path d="M1.37793 164L52.8153 160.947L105.056 159.726L156.494 157.283L205.52 154.23L259.368 152.398L308.395 151.177L359.832 146.292L410.466 142.628L463.511 137.743L514.948 131.027L566.385 121.257L619.43 113.319L669.26 107.212L720.697 101.106L784.055 95" stroke="#625AFA" stroke-width="1.5" stroke-linecap="round" stroke-linejoin="round"/>
<circle cx="784.299" cy="95" r="3" fill="#625AFA"/>
</svg>
