<svg width="16" height="11" viewBox="0 0 16 11" fill="none" xmlns="http://www.w3.org/2000/svg">
<path d="M8.00033 1.83333C9.22615 1.82926 10.4282 2.17119 11.4684 2.81982C12.5086 3.46845 13.3446 4.39744 13.8803 5.5C12.7803 7.74667 10.5337 9.16667 8.00033 9.16667C5.46699 9.16667 3.22033 7.74667 2.12033 5.5C2.65607 4.39744 3.49208 3.46845 4.53224 2.81982C5.57241 2.17119 6.7745 1.82926 8.00033 1.83333ZM8.00033 0.5C4.66699 0.5 1.82033 2.57333 0.666992 5.5C1.82033 8.42667 4.66699 10.5 8.00033 10.5C11.3337 10.5 14.1803 8.42667 15.3337 5.5C14.1803 2.57333 11.3337 0.5 8.00033 0.5ZM8.00033 3.83333C8.44235 3.83333 8.86628 4.00893 9.17884 4.32149C9.4914 4.63405 9.66699 5.05797 9.66699 5.5C9.66699 5.94203 9.4914 6.36595 9.17884 6.67851C8.86628 6.99107 8.44235 7.16667 8.00033 7.16667C7.5583 7.16667 7.13437 6.99107 6.82181 6.67851C6.50925 6.36595 6.33366 5.94203 6.33366 5.5C6.33366 5.05797 6.50925 4.63405 6.82181 4.32149C7.13437 4.00893 7.5583 3.83333 8.00033 3.83333ZM8.00033 2.5C6.34699 2.5 5.00033 3.84667 5.00033 5.5C5.00033 7.15333 6.34699 8.5 8.00033 8.5C9.65366 8.5 11.0003 7.15333 11.0003 5.5C11.0003 3.84667 9.65366 2.5 8.00033 2.5Z" fill="#545969"/>
</svg>
