<svg width="24" height="24" viewBox="0 0 24 24" fill="none" xmlns="http://www.w3.org/2000/svg">
<g filter="url(#filter0_d_4869_9330)">
<rect x="1" y="1" width="22" height="22" rx="11" fill="#F6F8FA"/>
<path d="M12 2C6.477 2 2 6.477 2 12C2 17.523 6.477 22 12 22C17.523 22 22 17.523 22 12C22 6.477 17.523 2 12 2Z" stroke="#545969" stroke-width="1.5" stroke-linecap="round" stroke-linejoin="round"/>
<path d="M4.271 18.346C4.271 18.346 6.5 15.5 12 15.5C17.5 15.5 19.73 18.346 19.73 18.346M12 12C12.7956 12 13.5587 11.6839 14.1213 11.1213C14.6839 10.5587 15 9.79565 15 9C15 8.20435 14.6839 7.44129 14.1213 6.87868C13.5587 6.31607 12.7956 6 12 6C11.2043 6 10.4413 6.31607 9.87868 6.87868C9.31607 7.44129 9 8.20435 9 9C9 9.79565 9.31607 10.5587 9.87868 11.1213C10.4413 11.6839 11.2043 12 12 12Z" stroke="#545969" stroke-width="1.5" stroke-linecap="round" stroke-linejoin="round"/>
<rect x="1" y="1" width="22" height="22" rx="11" stroke="#C0C8D2" stroke-width="2"/>
</g>
<defs>
<filter id="filter0_d_4869_9330" x="0" y="0" width="24" height="24" filterUnits="userSpaceOnUse" color-interpolation-filters="sRGB">
<feFlood flood-opacity="0" result="BackgroundImageFix"/>
<feColorMatrix in="SourceAlpha" type="matrix" values="0 0 0 0 0 0 0 0 0 0 0 0 0 0 0 0 0 0 127 0" result="hardAlpha"/>
<feOffset/>
<feComposite in2="hardAlpha" operator="out"/>
<feColorMatrix type="matrix" values="0 0 0 0 0 0 0 0 0 0 0 0 0 0 0 0 0 0 0.17 0"/>
<feBlend mode="normal" in2="BackgroundImageFix" result="effect1_dropShadow_4869_9330"/>
<feBlend mode="normal" in="SourceGraphic" in2="effect1_dropShadow_4869_9330" result="shape"/>
</filter>
</defs>
</svg>
