<svg width="14" height="15" viewBox="0 0 14 15" fill="none" xmlns="http://www.w3.org/2000/svg">
<path d="M1.33333 14.3C0.966667 14.3 0.652667 14.1693 0.391333 13.908C0.130444 13.6471 0 13.3333 0 12.9667V3.63334C0 3.26667 0.130444 2.95267 0.391333 2.69134C0.652667 2.43045 0.966667 2.3 1.33333 2.3H7.28333L5.95 3.63334H1.33333V12.9667H10.6667V8.33334L12 7V12.9667C12 13.3333 11.8696 13.6471 11.6087 13.908C11.3473 14.1693 11.0333 14.3 10.6667 14.3H1.33333ZM8.78333 2.68334L9.73333 3.61667L5.33333 8.01667V8.96667H6.26667L10.6833 4.55L11.6333 5.48334L7.21667 9.9C7.09444 10.0222 6.95289 10.1196 6.792 10.192C6.63067 10.264 6.46111 10.3 6.28333 10.3H4.66667C4.47778 10.3 4.31956 10.2362 4.192 10.1087C4.064 9.98067 4 9.82222 4 9.63334V8.01667C4 7.83889 4.03333 7.66934 4.1 7.508C4.16667 7.34711 4.26111 7.20556 4.38333 7.08334L8.78333 2.68334ZM11.6333 5.48334L8.78333 2.68334L10.45 1.01667C10.7167 0.750002 11.0362 0.616669 11.4087 0.616669C11.7807 0.616669 12.0944 0.750002 12.35 1.01667L13.2833 1.96667C13.5389 2.22222 13.6667 2.53334 13.6667 2.9C13.6667 3.26667 13.5389 3.57778 13.2833 3.83334L11.6333 5.48334Z" fill="#545969"/>
</svg>
